<?xml version="1.0" encoding="UTF-8" standalone="no"?>
<!-- Created with Inkscape (http://www.inkscape.org/) -->

<svg
   width="512mm"
   height="512mm"
   viewBox="0 0 512 512"
   version="1.1"
   id="svg1"
   inkscape:version="1.3.2 (091e20ef0f, 2023-11-25)"
   sodipodi:docname="vinyl.svg"
   xmlns:inkscape="http://www.inkscape.org/namespaces/inkscape"
   xmlns:sodipodi="http://sodipodi.sourceforge.net/DTD/sodipodi-0.dtd"
   xmlns="http://www.w3.org/2000/svg"
   xmlns:svg="http://www.w3.org/2000/svg">
  <sodipodi:namedview
     id="namedview1"
     pagecolor="#ffffff"
     bordercolor="#000000"
     borderopacity="0.25"
     inkscape:showpageshadow="2"
     inkscape:pageopacity="0.0"
     inkscape:pagecheckerboard="true"
     inkscape:deskcolor="#d1d1d1"
     inkscape:document-units="mm"
     inkscape:zoom="0.40012187"
     inkscape:cx="718.53109"
     inkscape:cy="1533.2829"
     inkscape:window-width="1803"
     inkscape:window-height="1133"
     inkscape:window-x="0"
     inkscape:window-y="0"
     inkscape:window-maximized="1"
     inkscape:current-layer="layer6" />
  <defs
     id="defs1">
    <linearGradient
       id="swatch63"
       inkscape:swatch="solid">
      <stop
         style="stop-color:#040101;stop-opacity:1;"
         offset="0"
         id="stop63" />
    </linearGradient>
    <clipPath
       clipPathUnits="userSpaceOnUse"
       id="clipPath56">
      <path
         id="path56"
         style="stroke-width:0.0999999;stroke-linecap:square;paint-order:markers fill stroke;stop-color:#000000"
         d="m 1691.1994,-792.32001 h 1634.8919 v 92.82806 H 1691.1994 Z" />
    </clipPath>
    <clipPath
       clipPathUnits="userSpaceOnUse"
       id="clipPath53">
      <path
         id="path53"
         style="stroke-width:0.1;stroke-linecap:square;paint-order:markers fill stroke;stop-color:#000000"
         d="m 1736.6147,-745.57287 h 1589.4765 v 72.46715 H 1736.6147 Z" />
    </clipPath>
    <clipPath
       clipPathUnits="userSpaceOnUse"
       id="clipPath51">
      <path
         id="path51"
         style="stroke-width:0.1;stroke-linecap:square;paint-order:markers fill stroke;stop-color:#000000"
         d="m 1736.6147,-745.57287 h 1589.4765 v 72.46715 H 1736.6147 Z" />
    </clipPath>
    <clipPath
       clipPathUnits="userSpaceOnUse"
       id="clipPath42">
      <rect
         style="fill:#ff0000;stroke:none;stroke-width:3;stroke-linecap:square;stroke-linejoin:miter;paint-order:stroke markers fill;stop-color:#000000"
         id="rect42"
         width="78"
         height="45.033199"
         x="763.61322"
         y="452.82422" />
    </clipPath>
    <clipPath
       clipPathUnits="userSpaceOnUse"
       id="clipPath25">
      <rect
         style="fill:#ff0000;stroke:none;stroke-width:3;stroke-linecap:square;stroke-linejoin:miter;paint-order:stroke markers fill;stop-color:#000000"
         id="rect25-8"
         width="78"
         height="45.033199"
         x="763.61322"
         y="452.82422" />
    </clipPath>
    <clipPath
       clipPathUnits="userSpaceOnUse"
       id="clipPath55">
      <path
         id="path55"
         style="stroke-width:0.1;stroke-linecap:square;paint-order:markers fill stroke;stop-color:#000000"
         d="m 1736.6147,-745.57287 h 1589.4765 v 72.46715 H 1736.6147 Z" />
    </clipPath>
    <clipPath
       clipPathUnits="userSpaceOnUse"
       id="clipPath54">
      <path
         id="path54"
         style="stroke-width:0.0999999;stroke-linecap:square;paint-order:markers fill stroke;stop-color:#000000"
         d="m 1691.1994,-792.32001 h 1634.8919 v 92.82806 H 1691.1994 Z" />
    </clipPath>
    <inkscape:path-effect
       effect="powerclip"
       id="path-effect22"
       is_visible="true"
       lpeversion="1"
       inverse="true"
       flatten="false"
       hide_clip="false"
       message="Use fill-rule evenodd on &lt;b&gt;fill and stroke&lt;/b&gt; dialog if no flatten result after convert clip to paths." />
    <inkscape:path-effect
       effect="powerclip"
       id="path-effect15"
       is_visible="true"
       lpeversion="1"
       inverse="true"
       flatten="false"
       hide_clip="false"
       message="Use fill-rule evenodd on &lt;b&gt;fill and stroke&lt;/b&gt; dialog if no flatten result after convert clip to paths." />
    <inkscape:path-effect
       effect="spiro"
       id="path-effect14"
       is_visible="true"
       lpeversion="1" />
    <inkscape:path-effect
       effect="powerclip"
       id="path-effect12"
       is_visible="true"
       lpeversion="1"
       inverse="true"
       flatten="false"
       hide_clip="false"
       message="Use fill-rule evenodd on &lt;b&gt;fill and stroke&lt;/b&gt; dialog if no flatten result after convert clip to paths." />
    <inkscape:path-effect
       effect="powerclip"
       id="path-effect11"
       is_visible="true"
       lpeversion="1"
       inverse="true"
       flatten="false"
       hide_clip="false"
       message="Use fill-rule evenodd on &lt;b&gt;fill and stroke&lt;/b&gt; dialog if no flatten result after convert clip to paths." />
    <filter
       id="mask-powermask-path-effect5_inverse"
       inkscape:label="filtermask-powermask-path-effect5"
       style="color-interpolation-filters:sRGB"
       height="100"
       width="100"
       x="-50"
       y="-50">
      <feColorMatrix
         id="mask-powermask-path-effect5_primitive1"
         values="1"
         type="saturate"
         result="fbSourceGraphic" />
      <feColorMatrix
         id="mask-powermask-path-effect5_primitive2"
         values="-1 0 0 0 1 0 -1 0 0 1 0 0 -1 0 1 0 0 0 1 0 "
         in="fbSourceGraphic" />
    </filter>
    <clipPath
       clipPathUnits="userSpaceOnUse"
       id="clipPath10">
      <circle
         style="display:none;fill:#f8fcec;fill-opacity:1;stroke-width:0.0518395"
         id="circle10"
         cx="256"
         cy="256"
         r="19.200001"
         d="M 275.2,256 A 19.200001,19.200001 0 0 1 256,275.2 19.200001,19.200001 0 0 1 236.8,256 19.200001,19.200001 0 0 1 256,236.8 19.200001,19.200001 0 0 1 275.2,256 Z" />
      <path
         id="lpe_path-effect11"
         style="fill:#f8fcec;fill-opacity:1;stroke-width:0.0518395"
         class="powerclip"
         d="M 148.6,148.6 H 363.4 V 363.4 H 148.6 Z M 275.2,256 A 19.200001,19.200001 0 0 0 256,236.8 19.200001,19.200001 0 0 0 236.8,256 19.200001,19.200001 0 0 0 256,275.2 19.200001,19.200001 0 0 0 275.2,256 Z" />
    </clipPath>
    <clipPath
       clipPathUnits="userSpaceOnUse"
       id="clipPath11">
      <circle
         style="display:none;fill:#f8fcec;fill-opacity:1;stroke-width:0.0518395"
         id="circle11"
         cx="256"
         cy="256"
         r="19.200001"
         d="M 275.2,256 A 19.200001,19.200001 0 0 1 256,275.2 19.200001,19.200001 0 0 1 236.8,256 19.200001,19.200001 0 0 1 256,236.8 19.200001,19.200001 0 0 1 275.2,256 Z" />
      <path
         id="lpe_path-effect12"
         style="fill:#f8fcec;fill-opacity:1;stroke-width:0.0518395"
         class="powerclip"
         d="M -5,-5 H 517 V 517 H -5 Z M 275.2,256 A 19.200001,19.200001 0 0 0 256,236.8 19.200001,19.200001 0 0 0 236.8,256 19.200001,19.200001 0 0 0 256,275.2 19.200001,19.200001 0 0 0 275.2,256 Z" />
    </clipPath>
    <inkscape:path-effect
       effect="spiro"
       id="path-effect14-9"
       is_visible="true"
       lpeversion="1" />
    <inkscape:path-effect
       effect="spiro"
       id="path-effect14-4"
       is_visible="true"
       lpeversion="1" />
    <clipPath
       clipPathUnits="userSpaceOnUse"
       id="clipPath15">
      <ellipse
         style="display:none;fill:none;fill-opacity:1;stroke:#000000;stroke-width:2.80982;stroke-dasharray:none;stroke-opacity:1"
         id="ellipse15"
         cx="256"
         cy="256"
         rx="19.200003"
         ry="19.200014"
         d="M 275.2,256 A 19.200003,19.200014 0 0 1 256,275.20001 19.200003,19.200014 0 0 1 236.8,256 19.200003,19.200014 0 0 1 256,236.79999 19.200003,19.200014 0 0 1 275.2,256 Z" />
      <path
         id="lpe_path-effect15"
         style="fill:none;fill-opacity:1;stroke:#000000;stroke-width:2.80982;stroke-dasharray:none;stroke-opacity:1"
         class="powerclip"
         d="M 141.58617,239.27269 H 370.41383 V 272.7273 H 141.58617 Z M 275.2,256 A 19.200003,19.200014 0 0 0 256,236.79999 19.200003,19.200014 0 0 0 236.8,256 19.200003,19.200014 0 0 0 256,275.20001 19.200003,19.200014 0 0 0 275.2,256 Z" />
    </clipPath>
    <filter
       id="mask-powermask-path-effect16_inverse"
       inkscape:label="filtermask-powermask-path-effect16"
       style="color-interpolation-filters:sRGB"
       height="100"
       width="100"
       x="-50"
       y="-50">
      <feColorMatrix
         id="mask-powermask-path-effect16_primitive1"
         values="1"
         type="saturate"
         result="fbSourceGraphic" />
      <feColorMatrix
         id="mask-powermask-path-effect16_primitive2"
         values="-1 0 0 0 1 0 -1 0 0 1 0 0 -1 0 1 0 0 0 1 0 "
         in="fbSourceGraphic" />
    </filter>
    <filter
       id="mask-powermask-path-effect18_inverse"
       inkscape:label="filtermask-powermask-path-effect18"
       style="color-interpolation-filters:sRGB"
       height="100"
       width="100"
       x="-50"
       y="-50">
      <feColorMatrix
         id="mask-powermask-path-effect18_primitive1"
         values="1"
         type="saturate"
         result="fbSourceGraphic" />
      <feColorMatrix
         id="mask-powermask-path-effect18_primitive2"
         values="-1 0 0 0 1 0 -1 0 0 1 0 0 -1 0 1 0 0 0 1 0 "
         in="fbSourceGraphic" />
    </filter>
    <clipPath
       clipPathUnits="userSpaceOnUse"
       id="clipPath11-0">
      <circle
         style="display:none;fill:#f8fcec;fill-opacity:1;stroke-width:0.0518395"
         id="circle11-3"
         cx="256"
         cy="256"
         r="19.200001"
         d="M 275.2,256 A 19.200001,19.200001 0 0 1 256,275.2 19.200001,19.200001 0 0 1 236.8,256 19.200001,19.200001 0 0 1 256,236.8 19.200001,19.200001 0 0 1 275.2,256 Z" />
      <path
         id="lpe_path-effect12-0"
         style="fill:#f8fcec;fill-opacity:1;stroke-width:0.0518395"
         class="powerclip"
         d="M -5,-5 H 517 V 517 H -5 Z M 275.2,256 A 19.200001,19.200001 0 0 0 256,236.8 19.200001,19.200001 0 0 0 236.8,256 19.200001,19.200001 0 0 0 256,275.2 19.200001,19.200001 0 0 0 275.2,256 Z" />
    </clipPath>
    <inkscape:path-effect
       effect="powerclip"
       id="path-effect12-4"
       is_visible="true"
       lpeversion="1"
       inverse="true"
       flatten="false"
       hide_clip="false"
       message="Use fill-rule evenodd on &lt;b&gt;fill and stroke&lt;/b&gt; dialog if no flatten result after convert clip to paths." />
    <clipPath
       clipPathUnits="userSpaceOnUse"
       id="clipPath10-4">
      <circle
         style="display:none;fill:#f8fcec;fill-opacity:1;stroke-width:0.0518395"
         id="circle10-4"
         cx="256"
         cy="256"
         r="19.200001"
         d="M 275.2,256 A 19.200001,19.200001 0 0 1 256,275.2 19.200001,19.200001 0 0 1 236.8,256 19.200001,19.200001 0 0 1 256,236.8 19.200001,19.200001 0 0 1 275.2,256 Z" />
      <path
         id="lpe_path-effect11-4"
         style="fill:#f8fcec;fill-opacity:1;stroke-width:0.0518395"
         class="powerclip"
         d="M 148.6,148.6 H 363.4 V 363.4 H 148.6 Z M 275.2,256 A 19.200001,19.200001 0 0 0 256,236.8 19.200001,19.200001 0 0 0 236.8,256 19.200001,19.200001 0 0 0 256,275.2 19.200001,19.200001 0 0 0 275.2,256 Z" />
    </clipPath>
    <inkscape:path-effect
       effect="powerclip"
       id="path-effect11-7"
       is_visible="true"
       lpeversion="1"
       inverse="true"
       flatten="false"
       hide_clip="false"
       message="Use fill-rule evenodd on &lt;b&gt;fill and stroke&lt;/b&gt; dialog if no flatten result after convert clip to paths." />
    <clipPath
       clipPathUnits="userSpaceOnUse"
       id="clipPath15-6">
      <ellipse
         style="display:none;fill:none;fill-opacity:1;stroke:#000000;stroke-width:2.80982;stroke-dasharray:none;stroke-opacity:1"
         id="ellipse15-3"
         cx="256"
         cy="256"
         rx="19.200003"
         ry="19.200014"
         d="M 275.2,256 A 19.200003,19.200014 0 0 1 256,275.20001 19.200003,19.200014 0 0 1 236.8,256 19.200003,19.200014 0 0 1 256,236.79999 19.200003,19.200014 0 0 1 275.2,256 Z" />
      <path
         id="lpe_path-effect15-1"
         style="fill:none;fill-opacity:1;stroke:#000000;stroke-width:2.80982;stroke-dasharray:none;stroke-opacity:1"
         class="powerclip"
         d="M 141.58617,239.27269 H 370.41383 V 272.7273 H 141.58617 Z M 275.2,256 A 19.200003,19.200014 0 0 0 256,236.79999 19.200003,19.200014 0 0 0 236.8,256 19.200003,19.200014 0 0 0 256,275.20001 19.200003,19.200014 0 0 0 275.2,256 Z" />
    </clipPath>
    <inkscape:path-effect
       effect="powerclip"
       id="path-effect15-7"
       is_visible="true"
       lpeversion="1"
       inverse="true"
       flatten="false"
       hide_clip="false"
       message="Use fill-rule evenodd on &lt;b&gt;fill and stroke&lt;/b&gt; dialog if no flatten result after convert clip to paths." />
    <clipPath
       clipPathUnits="userSpaceOnUse"
       id="clipath_lpe_path-effect12-4">
      <circle
         style="display:none;fill:#f8fcec;fill-opacity:1;stroke-width:0.0518395"
         id="circle19"
         cx="256"
         cy="256"
         r="19.200001" />
    </clipPath>
    <clipPath
       clipPathUnits="userSpaceOnUse"
       id="clipath_lpe_path-effect11-7">
      <circle
         style="display:none;fill:#f8fcec;fill-opacity:1;stroke-width:0.0518395"
         id="circle20"
         cx="256"
         cy="256"
         r="19.200001" />
    </clipPath>
    <clipPath
       clipPathUnits="userSpaceOnUse"
       id="clipath_lpe_path-effect15-7">
      <ellipse
         style="display:none;fill:none;fill-opacity:1;stroke:#000000;stroke-width:2.80982;stroke-dasharray:none;stroke-opacity:1"
         id="ellipse20"
         cx="256"
         cy="256"
         rx="19.200003"
         ry="19.200014" />
    </clipPath>
    <clipPath
       clipPathUnits="userSpaceOnUse"
       id="clipPath11-4">
      <circle
         style="display:none;fill:#f8fcec;fill-opacity:1;stroke-width:0.0518395"
         id="circle11-1"
         cx="256"
         cy="256"
         r="19.200001"
         d="M 275.2,256 A 19.200001,19.200001 0 0 1 256,275.2 19.200001,19.200001 0 0 1 236.8,256 19.200001,19.200001 0 0 1 256,236.8 19.200001,19.200001 0 0 1 275.2,256 Z" />
      <path
         id="lpe_path-effect12-8"
         style="fill:#f8fcec;fill-opacity:1;stroke-width:0.0518395"
         class="powerclip"
         d="M -5,-5 H 517 V 517 H -5 Z M 275.2,256 A 19.200001,19.200001 0 0 0 256,236.8 19.200001,19.200001 0 0 0 236.8,256 19.200001,19.200001 0 0 0 256,275.2 19.200001,19.200001 0 0 0 275.2,256 Z" />
    </clipPath>
    <inkscape:path-effect
       effect="powerclip"
       id="path-effect12-5"
       is_visible="true"
       lpeversion="1"
       inverse="true"
       flatten="false"
       hide_clip="false"
       message="Use fill-rule evenodd on &lt;b&gt;fill and stroke&lt;/b&gt; dialog if no flatten result after convert clip to paths." />
    <clipPath
       clipPathUnits="userSpaceOnUse"
       id="clipPath10-8">
      <circle
         style="display:none;fill:#f8fcec;fill-opacity:1;stroke-width:0.0518395"
         id="circle10-8"
         cx="256"
         cy="256"
         r="19.200001"
         d="M 275.2,256 A 19.200001,19.200001 0 0 1 256,275.2 19.200001,19.200001 0 0 1 236.8,256 19.200001,19.200001 0 0 1 256,236.8 19.200001,19.200001 0 0 1 275.2,256 Z" />
      <path
         id="lpe_path-effect11-3"
         style="fill:#f8fcec;fill-opacity:1;stroke-width:0.0518395"
         class="powerclip"
         d="M 148.6,148.6 H 363.4 V 363.4 H 148.6 Z M 275.2,256 A 19.200001,19.200001 0 0 0 256,236.8 19.200001,19.200001 0 0 0 236.8,256 19.200001,19.200001 0 0 0 256,275.2 19.200001,19.200001 0 0 0 275.2,256 Z" />
    </clipPath>
    <inkscape:path-effect
       effect="powerclip"
       id="path-effect11-1"
       is_visible="true"
       lpeversion="1"
       inverse="true"
       flatten="false"
       hide_clip="false"
       message="Use fill-rule evenodd on &lt;b&gt;fill and stroke&lt;/b&gt; dialog if no flatten result after convert clip to paths." />
    <clipPath
       clipPathUnits="userSpaceOnUse"
       id="clipPath22">
      <circle
         style="display:none;fill:#da7635;fill-opacity:1;stroke-width:0.276479"
         id="circle22"
         clip-path="none"
         cx="256"
         cy="256"
         r="102.4"
         d="M 358.4,256 A 102.4,102.4 0 0 1 256,358.4 102.4,102.4 0 0 1 153.6,256 102.4,102.4 0 0 1 256,153.6 102.4,102.4 0 0 1 358.4,256 Z" />
      <path
         id="lpe_path-effect22"
         style="fill:#da7635;fill-opacity:1;stroke-width:0.276479"
         class="powerclip"
         d="M -5,-5 H 517 V 517 H -5 Z M 358.4,256 A 102.4,102.4 0 0 0 256,153.6 102.4,102.4 0 0 0 153.6,256 102.4,102.4 0 0 0 256,358.4 102.4,102.4 0 0 0 358.4,256 Z" />
    </clipPath>
  </defs>
  <g
     inkscape:label="Layer 1"
     inkscape:groupmode="layer"
     id="layer1">
    <path
       style="display:none;fill:#252525;fill-opacity:1;stroke-width:0.691197"
       id="path1"
       clip-path="url(#clipPath11)"
       inkscape:path-effect="#path-effect12"
       sodipodi:type="arc"
       sodipodi:cx="256"
       sodipodi:cy="256"
       sodipodi:rx="256"
       sodipodi:ry="256"
       d="M 512,256 A 256,256 0 0 1 256,512 256,256 0 0 1 0,256 256,256 0 0 1 256,0 256,256 0 0 1 512,256 Z" />
    <path
       style="display:inline;fill:#da7635;fill-opacity:1;stroke-width:0.276478"
       id="path1-5"
       clip-path="url(#clipPath10)"
       d="M 358.4,256 A 102.4,102.4 0 0 1 256,358.4 102.4,102.4 0 0 1 153.6,256 102.4,102.4 0 0 1 256,153.6 102.4,102.4 0 0 1 358.4,256 Z"
       sodipodi:type="arc"
       sodipodi:ry="102.4"
       sodipodi:rx="102.4"
       sodipodi:cy="256"
       sodipodi:cx="256"
       inkscape:path-effect="#path-effect11" />
    <path
       style="fill:none;fill-opacity:1;stroke:#000000;stroke-width:4.02768;stroke-dasharray:none;stroke-opacity:1"
       id="rect14-8"
       width="214.79999"
       height="19.426926"
       x="148.60001"
       y="246.28653"
       clip-path="url(#clipPath15)"
       sodipodi:type="rect"
       d="m 148.60001,246.28653 h 214.79998 v 19.42693 H 148.60001 Z"
       inkscape:path-effect="#path-effect15" />
    <ellipse
       style="fill:none;fill-opacity:1;stroke:#000000;stroke-width:2.80983;stroke-dasharray:none;stroke-opacity:1"
       id="path15-9"
       cx="256"
       cy="256"
       rx="19.200003"
       ry="19.200014" />
    <text
       xml:space="preserve"
       style="font-size:32.5883px;font-family:Serif;-inkscape-font-specification:Serif;letter-spacing:2.91569px;fill:#000000;fill-opacity:1;stroke-width:0.519615"
       id="text12"
       y="223.49306"
       x="179.50186"><tspan
         id="tspan12"
         style="font-style:normal;font-variant:normal;font-weight:bold;font-stretch:normal;font-size:32.5883px;font-family:Serif;-inkscape-font-specification:Serif;letter-spacing:2.91569px;fill:#000000;fill-opacity:1;stroke-width:0.519618"
         x="179.50186"
         y="223.49306"
         sodipodi:role="line">SPINIFY</tspan></text>
  </g>
  <g
     inkscape:groupmode="layer"
     id="layer6"
     inkscape:label="Layer 2">
    <path
       style="mix-blend-mode:normal;fill:#2a2a2a;fill-opacity:1;stroke-width:0.691197"
       id="path1-7"
       clip-path="url(#clipPath22)"
       d="M 512,256 A 256,256 0 0 1 256,512 256,256 0 0 1 0,256 256,256 0 0 1 256,0 256,256 0 0 1 512,256 Z"
       sodipodi:type="arc"
       sodipodi:ry="256"
       sodipodi:rx="256"
       sodipodi:cy="256"
       sodipodi:cx="256"
       inkscape:path-effect="#path-effect22" />
  </g>
</svg>
